<?xml version="1.0" encoding="utf-8"?>
<!-- Generator: Adobe Illustrator 27.9.0, SVG Export Plug-In . SVG Version: 6.00 Build 0)  -->
<svg version="1.1" id="Camada_1" xmlns="http://www.w3.org/2000/svg" xmlns:xlink="http://www.w3.org/1999/xlink" x="0px" y="0px"
	 viewBox="0 0 800 800" style="enable-background:new 0 0 800 800;" xml:space="preserve">
<style type="text/css">
	.st0{fill:#FFFFFF;}
	.st1{fill:#013369;}
	.st2{fill:#1D3767;}
	.st3{fill:#D50A0A;}
</style>
<g>
	<path class="st0" d="M400,14.3c-7.08,14.04-15.79,27.48-26.48,39.86c-66.69,77.28-156.4,103.19-256.94,12.53v526.92
		c1.09,59.83,46.57,80.06,88.56,95.82l32.86,9.32c49.25,6.37,97.08,18.58,162,86.95c64.92-68.36,112.75-80.58,162-86.95l32.85-9.32
		c41.99-15.76,87.47-36,88.57-95.82V66.69c-100.54,90.66-190.25,64.75-256.94-12.53C415.79,41.78,407.08,28.34,400,14.3"/>
	<path class="st1" d="M426.89,87.68c-10.07-11.52-18.26-24.03-24.84-37.13c-6.58,13.09-14.77,25.61-24.84,37.13
		c-61.08,69.88-164.28,79.07-235.31,22.84v464.93c1,54.1,42.65,72.39,81.11,86.64l30.09,8.42c45.19,5.77,89.07,16.84,148.69,78.95
		c0.09-0.12,0.17-0.24,0.26-0.36c0.09,0.12,0.17,0.24,0.26,0.36c59.62-62.11,103.5-73.18,148.69-78.95l30.09-8.42
		c38.46-14.25,80.11-32.55,81.11-86.64V110.52C591.18,166.75,487.97,157.56,426.89,87.68z"/>
	<g>
		<path class="st0" d="M465.78,140.89c0,0-80.03-11.66-118.35,50.21c-37.83,61.07-11.13,116.59-11.13,116.59
			s80.37,13.52,123.04-52.23C494.78,200.85,465.78,140.89,465.78,140.89z"/>
		<g>
			<path class="st2" d="M379.9,187.79l35.84,18.33c1.37-1.45,2.75-2.88,4.13-4.29l-35.92-18.37
				C382.59,184.87,381.23,186.31,379.9,187.79z"/>
			<path class="st2" d="M367.82,203.15L402.73,221c1.35-1.69,2.74-3.35,4.16-5.01l-35.34-18.07
				C370.27,199.63,369.02,201.36,367.82,203.15z"/>
			<path class="st2" d="M358.4,219.14l33.68,17.23c0.97-1.66,1.96-3.29,2.98-4.88l-33.97-17.37
				C360.17,215.77,359.28,217.45,358.4,219.14z"/>
			<path class="st2" d="M415.5,157.35c-1.75,1.17-3.53,2.41-5.32,3.68l34.61,17.7c1.62-1.37,3.2-2.7,4.74-3.98L415.5,157.35z"/>
			<path class="st2" d="M393.77,174.08l35.76,18.29c1.64-1.54,3.28-3.06,4.9-4.53l-35.52-18.17
				C397.19,171.09,395.48,172.57,393.77,174.08z"/>
		</g>
		<g>
			<path class="st2" d="M433.46,169.48c20.39-17.81,37.12-29.38,37.12-29.38l-3.06-2.05c0,0-18.45,6.5-42.91,26.87L433.46,169.48z"
				/>
			<path class="st2" d="M373.77,223.29c-24.86,39.63-40.25,85.3-40.25,85.3l3.65,2.21c0,0,19.18-46.84,43.85-83.89L373.77,223.29z"
				/>
		</g>
	</g>
	<g>
		<g>
			<polygon class="st0" points="605.1,168.04 613.76,192.67 641.08,192.67 619.28,210.04 627.59,236.59 605.1,219.42 582.63,235.55 
				591.27,209.86 570.19,192.67 596.47,192.67 			"/>
			<polygon class="st0" points="605.1,248.57 613.76,273.21 641.08,273.21 619.28,290.56 627.59,317.12 605.1,299.94 582.63,316.08 
				591.27,290.39 570.19,273.21 596.47,273.21 			"/>
			<polygon class="st0" points="518.64,248.57 527.3,273.21 554.6,273.21 532.82,290.56 541.13,317.12 518.64,299.94 496.18,316.08 
				504.81,290.39 483.72,273.21 510.01,273.21 			"/>
			<polygon class="st0" points="517.95,168.04 526.6,192.67 553.93,192.67 532.14,210.04 540.43,236.59 517.95,219.42 
				495.49,235.55 504.13,209.86 483.03,192.67 509.31,192.67 			"/>
		</g>
		<g>
			<polygon class="st0" points="285.11,168.04 293.76,192.67 321.08,192.67 299.29,210.04 307.6,236.59 285.11,219.42 
				262.63,235.55 271.27,209.86 250.19,192.67 276.48,192.67 			"/>
			<polygon class="st0" points="285.11,248.57 293.76,273.21 321.08,273.21 299.29,290.56 307.6,317.12 285.11,299.94 
				262.63,316.08 271.27,290.39 250.19,273.21 276.48,273.21 			"/>
			<polygon class="st0" points="198.65,248.57 207.3,273.21 234.6,273.21 212.82,290.56 221.14,317.12 198.65,299.94 176.18,316.08 
				184.81,290.39 163.72,273.21 190.01,273.21 			"/>
			<polygon class="st0" points="197.95,168.04 206.6,192.67 233.94,192.67 212.15,210.04 220.43,236.59 197.95,219.42 
				175.49,235.55 184.13,209.86 163.03,192.67 189.32,192.67 			"/>
		</g>
	</g>
	<path class="st0" d="M167.67,335.1v223.29c0.9,49.69,38.42,66.5,73.08,79.58l27.11,7.74c40.72,5.3,80.25,15.47,133.97,72.51
		c0.08-0.11,0.16-0.22,0.24-0.33c0.08,0.11,0.15,0.22,0.23,0.33c53.72-57.05,93.26-67.22,133.97-72.51l27.11-7.74
		c34.66-13.09,72.18-29.9,73.08-79.58V335.1H167.67z"/>
	<path class="st3" d="M415.94,364.66h-41.44h-14.82v35.36h14.82v65.12v35.36v53.53v17.83V603v1.61c-9.11-1.05-16.92-1.61-16.92-1.61
		v32c0,0,19.67,2.1,33.57,6.3c11.23,3.39,38.82,16.26,38.82,16.26v-35.41c0,0-5.34-3.39-14.03-7.18V603v-48.97V500.5h21.67
		l5.19,14.58h23.29V500.5v-17.68v-1.05v-16.63v-15.63H442.8l-5.57,15.63h-21.3v-65.12h27.28l8.92,20.77h28.06v-20.77v-12.54v-22.82
		H415.94z"/>
	<path class="st3" d="M333.05,364.66h-41.44h-12.07v35.36h12.07v86.41l-43.28-123.78v-0.09h-41.44h-11.8v35.36h11.8v97.73v57.9
		c-9.52-0.49-17.82-0.5-17.82-0.5l2.88,35.99c0,0,19.8,0.79,34.03,4.4c11.5,2.91,40.16,15.19,40.16,15.19l-3.19-39.82
		c0,0-5.62-3.39-14.63-6.95v-66.21v-7.43l44.82,128.19l39.9,12.33v-0.21v-23.57V400.01h11.54v-35.36H333.05z"/>
	<path class="st3" d="M579.79,511.11v50.29c-10.92,2.44-22.81,5.27-32.71,8.06v-3.36v-39.43v-126.6l12.06-5.52v-29.89h-12.06h-20.2
		h-1.05h-20.2h-12.07v29.89l12.07,5.52v126.6v39.43v19.89c-7.05,3.65-13.04,7.2-17.83,10.24v40.41
		c13.1-7.56,45.69-26.05,61.55-32.42c30.43-12.24,63.15-15.13,63.15-15.13v-3.1v-31.43v-43.45H579.79z"/>
</g>
</svg>
