<?xml version="1.0" encoding="utf-8"?>
<!-- Generator: Adobe Illustrator 27.9.0, SVG Export Plug-In . SVG Version: 6.00 Build 0)  -->
<svg version="1.1" id="Layer_1" xmlns="http://www.w3.org/2000/svg" xmlns:xlink="http://www.w3.org/1999/xlink" x="0px" y="0px"
	 viewBox="0 0 800 800" style="enable-background:new 0 0 800 800;" xml:space="preserve">
<style type="text/css">
	.st0{fill:#B1BABF;}
	.st1{fill:#B2BABF;}
	.st2{fill:#FFFFFF;}
	.st3{fill:#D50A0A;}
	.st4{fill:#0A0A08;}
	.st5{fill:#FF7900;}
	.st6{fill:#ACB9BF;}
</style>
<g>
	<path class="st0" d="M162.98,236.75c6.05-1.13,12.22-3.22,17.92-5.54c3.84-1.58,10.14-4.51,9.45-9.53
		c-0.93-6.72-15.48-1.97-19.15-0.79c-7.37,2.38-14.64,5.15-21.69,8.36c-0.48-7.66,0.97-15.3,2.74-22.75
		c-8.82-0.6-17.51-3.51-25.72-6.77c7.99-2.35,15.83-4.97,23.02-9.19c15.21-8.91,28.95-20.13,44.03-29.27
		c22.35-13.59,46.59-24.03,71.65-31.44c21.76-6.47,44.48-10.62,67.17-11.73c46.25-2.26,92.82,7.7,136.56,22.04
		c31.9,10.45,62.65,24,94.79,33.8c30.98,9.43,61.63,14.33,94.03,11.96c22.53-1.67,44.96-7.21,65.68-16.18
		c4.98-2.18,9.8-4.7,14.48-7.46c4.5-16.81,8.5-33.85,11.18-51.02c2.64-16.85,3.05-34.24,2.32-51.24
		c11.76,15.01,19.02,33.58,23.6,51.97c11.47,45.83,7.94,94.62-2.44,140.31c-15.62,68.83-46.72,136.16-83.3,196.27
		c-37.06,60.89-77.34,119.71-117.55,178.53c9.89,10.26,13.35,24.75,11.71,38.66c-1.76,14.62-9.06,27.81-19.71,37.84
		c-11.76,11.05-28.98,16.14-44.79,16.39c-4.23,0.07-8.47-0.31-12.68-0.53c-0.26-0.01-0.52,0.04-0.75,0.16
		c-1.2,0.53-4.99,3-6.04,4.27c-1.45,1.71-2.52,4.09-4.21,6.05c-4.42,5.09-10.72,8.67-17.36,9.72c-4.48,0.66-9.01,0.38-13.43-0.59
		c-12.92-2.84-21.42-13.49-22.79-26.28c-0.48-4.53,0.3-9.11,1.58-13.45l-3.6-14.79l10.13-9.13c5.1-22.72,14.69-44.45,28.48-63.28
		c-8.49-3.99-13.94-11.7-14.98-21c-1.16-10.21,4.49-20.6,13.88-24.92c9.85-4.51,21.34-2.82,30.6,2.36c2.33,1.3,4.58,2.91,6.54,4.75
		l28.55-41.49c-39.29,5.39-79.88,5.44-118.67-3.31c-29.71-6.72-58.13-18.47-85.09-32.45c-16.56-8.6-32.61-18.09-49.25-26.46
		c-21.01-10.57-44.7-16.75-67.92-19.88c-29.66-4.01-59.94-2.6-88.82,5.4c-29.09,8.05-59.3,28.71-79.84,50.61
		c-5.07,5.39-10.13,10.77-14.52,16.73c-7.15,9.71-13.96,19.67-20.92,29.51c0-0.53,0.03-2.43,0.07-3.39
		c0.92-20.06,2.14-40.07,6.63-59.7c8.76-38.45,27.1-75.69,55.6-103.35c12.74-12.33,27.71-22.15,44.03-29.11
		c1.77-0.76,3.71-2.4,5.22-3.57c7.8-5.89,11.02-12.26,10.6-22.19c-0.59-13.54-14.95-22.78-27.01-25.27
		c-7.01-1.45-14.04-1.57-21.14-0.58c4.68-4.45,10.36-7.22,16.33-9.49c-11.48-6.82-19.9-16.72-24.04-29.51
		c20.44,1.18,38.41-1.16,57.76-7.93c-4.93-7.14-11.91-12.94-18.65-18.27l20.16-0.34L162.98,236.75z"/>
	<path d="M758.14,95.72c7.72,15.16,11.88,32.19,13.47,49.1c0.91,9.67,0.88,19.39,0.58,29.1c-1.86,60.63-17.22,120.19-42.07,175.38
		c-6.99,15.52-14.64,30.7-22.97,45.53c-15.23,27-31.2,54.13-47.34,80.6c-31.61,51.83-65.26,102.41-99.8,152.29
		c10.51,9.21,15.73,20.94,14.43,35.02c-0.81,8.63-3.62,16.66-8.35,23.89c-7.19,10.99-18.09,18.34-30.7,21.74
		c-10.89,2.92-22.18,2.78-33.3,1.27c-2.37,3.22-5.88,5.72-9.62,7.13c-3.51,9.41-13.45,15.36-23.51,13.91
		c-9.07-1.13-16.91-8.93-18.08-17.91c-0.58-4.51,0.07-9.05,2.14-13.12l-3.2-12.04c2.63-2.29,6.45-4.44,7.9-7.7
		c4.76-10.81,6.96-22.47,12.03-33.58c5.86-12.74,13.26-24.8,20.77-36.57c0.42-0.62-0.37-1.78-0.7-2.24
		c-0.27-0.35-1.05-1.18-1.46-1.38c-5.55-2.58-10.36-3.31-13.88-9.06c-3.6-5.85-2.87-13.4,1.41-18.67c6.81-8.32,19.01-6.46,27.4-1.82
		c4.77,2.64,8.96,6.26,12.52,10.36c15.51-22.05,30.62-44.38,45.68-66.73c0.16-0.26-0.49-0.41-0.75-0.62
		c-43.79,8.13-89.14,9.58-132.85,0.36c-29.14-6.16-57.18-17.92-83.57-31.53c-17.31-8.92-34.08-18.88-51.49-27.55
		c-23.46-11.68-53.1-18.87-79.11-21.34c-30.28-2.93-61.39-0.62-90.33,8.99c-36.13,12.03-70.67,40.79-94.02,70.99
		c-0.4,0.5-0.45-0.16-0.36-0.81c3.01-18.51,6.96-36.78,13.23-54.49c11.21-31.73,29.93-62.57,57.28-82.94
		c6.4-4.77,13.06-9.08,20.15-12.74c6.35-3.28,13.54-4.73,19.75-8.06c1.68-0.9,5.84-7.14,6.92-8.95c6.56-11.02,8.67-24.45,4.14-36.56
		c-5.34-14.23-20.3-22.97-32.29-31.12c-4.42-2.99-8.48-6.73-12.42-10.28c8.68,0.35,17.37-0.65,25.84-2.53
		c11.77-2.6,22.01-7.47,34.34-9.65c-7.11-6.31-15.49-10.65-24.4-13.87c16.99-1.38,33.83-5.31,49.78-11.45
		c7.59-2.94,14.27-7.74,19.4-14.05c2.48-3.07,4.99-7.91,2.24-11.29c-2.41-2.95-11.45-1.82-14.78-1.1c3.8-4.71,8.86-7.48,14.45-9.6
		c0.87-0.34-0.25-0.4-1.17-0.4c-18.19-0.12-36.24,5.18-51.5,15.04c-0.41,0.26-0.69-0.06-0.44-0.46c3.99-7.23,9.25-13.75,14.48-20.09
		c-4.93,1.58-9.85,3.14-14.79,4.68l-1.29-0.27c35.48-28.02,74.65-51.5,118.45-63.61c46.75-12.92,96.52-10.19,143.28,1.12
		c20.21,4.87,40.08,10.82,59.73,17.57c37.47,12.85,73.47,26.75,111.94,36.83c11.2,2.94,22.78,4.77,34.33,5.71
		c19.66,1.6,39.59-0.18,58.96-3.54c21.09-3.65,41.35-12.49,61.12-25.08C752.88,143.79,757.22,120.55,758.14,95.72z"/>
	<path class="st1" d="M481.63,672.33l-0.28,1.62c-1.21,6.3-3.78,12.57-8.66,16.91c-1.39,1.23-3.48,1.85-5.29,2.02
		c-0.12-0.35-0.27-0.67-0.41-1.03c-0.22,0.51-0.43,1.01-0.66,1.5c1.15,3.74,4,6.69,7.26,8.7c-1.97,0.2-3.67,0.37-5.38,1.46
		c-2.78,1.77-3.79,5.53-2.73,8.49c1.21,3.42,5.17,5.59,8.7,4.51c2.41-0.73,4.68-2.66,5.19-5.25c0.53-2.77-0.3-5.58-2.46-7.47
		c-0.61-0.53,0.31-0.77,1-0.39c2.05,1.18,5.13,0.95,7.46,0.48c1.94-0.38,3.49-1.3,4.96-2.61l-1.16-2.7
		c-5.81,3.12-12.56,1.34-17.21-2.98l1.47-0.5c5.26,0.59,12.99-0.23,16.61-4.63c7.1,3.86,14.96,5.24,22.95,5.71
		c10.82,0.66,23.18-1.41,32.07-7.96c9.7-7.14,16.52-19.98,14.8-32.19c-0.93-6.66-4.92-12.35-9.43-17.17
		c-10.82-11.57-25.62-20.32-36.7-31.55c-3.59-3.64-7.39-9.67-11.2-13.04c-3.78-3.34-8.44-6.15-13.44-7.12
		c-1.05-0.2-1.46,0.22-2.19,0.96c-0.12,0.88,0.01,1.33,0.69,1.96c6.31,1.67,12.17,4.73,15.33,10.72c0.92,1.76,2.03,3.98,2.18,5.97
		c0.3,3.59,0.55,9.32,1.76,12.69c0.93,2.67,2.53,5.51,4.68,7.41c4.36,3.81,8.92,7.4,13.37,11.07c3.13,2.58,8.42,6.47,12.69,4.59
		c2.37-1.03,3.86-2.19,4.82-4.76c0.59,3.62,0.43,7.04-1.93,10.05c4.73,5.32,10.17,12.52,8.64,20.15
		c-1.97,9.91-10.17,18.48-19.74,21.68c-12.33,4.09-26.61,2.05-37.96-4.01l1.15-2.56C487.12,681.44,483.32,677.84,481.63,672.33z"/>
	<path class="st1" d="M549.57,618.68c0.16,0.12,0.3,0.26,0.44,0.38c26.86-39.56,53.38-79.4,79.35-119.54
		c-4.89,2.08-9.86,4.01-14.87,5.83c-0.3,0.11-0.61,0.32-0.78,0.61c-23.38,35.81-47.12,71.38-71.12,106.78
		C544.94,614.69,547.28,616.68,549.57,618.68z"/>
	<path class="st1" d="M484.6,664.86c2.36,5.28,6.01,9.25,11.41,11.5c7.08-12.04,13.81-22.87,21.37-33.07
		c-3.08-2.5-6.12-5.2-8.78-8.16c-1.43-1.59-2.7-3.48-3.63-5.84l-13.03,20.91L484.6,664.86z"/>
	<path class="st2" d="M524.63,597.5c18.89-26.66,37.06-53.86,55.21-81.02c0.25-0.38,0.51-0.75,0.77-1.1l20.41-5.6
		c0.32-0.07,0.42,0.49,0.65,0.74c-2.72,3.97-5.43,7.97-8.18,11.92c-19.4,28.06-38.9,56.03-58.58,83.85L524.63,597.5z"/>
	<path class="st2" d="M481.63,672.33c-1.09,8.08-4.06,14.19-8.94,18.53c-1.39,1.23-3.48,1.85-5.29,2.02
		c-0.12-0.35-0.27-0.67-0.41-1.03c2.32-2.25,4-5.21,5.15-8.19c3.47-9.24,5.71-18.84,10-29.15
		C480.46,660.52,480.05,666.24,481.63,672.33z"/>
	<path class="st2" d="M504.99,629.49c-7.76,10.82-14,21.83-20.48,35.49c-0.95-5.36-1.13-10.31,0.1-15.67
		c2.14-5.22,6.33-12.16,9.28-17.16c3.06-5.24,6.3-10.37,9.64-15.45C503.23,621.16,503.52,625.24,504.99,629.49z"/>
	<path class="st3" d="M218.94,236.31c5.37-4.37,8.61-7.75,11.74-13.88c2.88-5.63,4.9-12.31,4.16-18.65
		c-0.83-6.91-6.4-11.29-12.91-12.64c-9.61-2.01-19.92,0.19-29.1,3.15c-0.67,0.22-1.38,0.26-0.9-0.23
		c16.1-15.63,36.2-27.23,56.87-35.69c25.59-10.46,53.02-16.34,80.61-17.68c7.45-0.36,14.9-0.43,22.38-0.34
		c22.03,0.26,44.18,3.4,65.66,8.15c9.04,1.97,17.99,4.27,26.88,6.87c30.92,8.99,61.18,20.14,91.79,30.12
		c35.35,11.55,71.66,21.14,108.96,22.46c16.97,0.61,34.34-2.05,50.76-6.19c21.08-5.34,39.12-13.15,56.71-25.99
		c3.9-2.86,7.53-6.24,11.02-9.58c-0.7,23.36-2.74,46.7-7.24,69.66c-13.8,70.19-46.14,138.22-82.81,199.26
		c-8.79,14.64-17.82,29.15-27.2,43.43c-41.03,18.81-86.05,29.95-131.08,32.74c-8.7,0.52-17.4,0.79-26.13,0.52
		c-7.74-0.33-15.45-0.69-23.13-1.48c-24.77-2.56-51.24-9.2-74.63-17.66c-15.69-5.63-30.98-12.82-45.53-20.9
		c-11.31-6.3-22.24-13.24-33.59-19.43c-16.44-8.95-34.03-15.57-52.25-19.88c-28.14-6.67-57.72-8.58-86.56-7.49
		c-27.3,1.03-54.27,7.42-79.12,18.77c-13.24,6.02-25.95,13.65-37.32,22.78c-0.52,0.43-1.1,0.6-0.9-0.04
		c11.33-38.71,35.06-71.93,71.81-89.76c14.2-6.9,29.85-10.83,45.53-12.38c8.4-0.84,16.97-0.88,25.38,0.03
		c-13.41-5.66-26.6-7.88-41.06-5.46c6.79-10.51,11.81-23.03,11.16-35.75c-0.91-18.79-14.82-33.92-31.42-43.22l22.76-5.25l17.67-5.99
		c8.23-2.47,17.03-3.57,25.53-4.82c-8.02-5.44-17.34-8.43-26.67-10.86C192.5,250.17,205.54,245.05,218.94,236.31z"/>
	<path class="st4" d="M335.89,377.06c-9.78-1.95-19.67-1.72-29.62-1.77c-5.05-0.02-8.7,1.14-13.42,1.63
		c-2.86,0.28-6.26-0.53-8.39-2.72c-0.4,0.56-4.13,3.22-5.27,4.56c-3.08,0.53-5.97,1.1-8.74,2.71c-4.42,2.54-5.63,7.08-5.43,11.87
		c0.3,7.38,7.72,12.35,14.63,11.87c1.59,1.78,3.68,3.05,5.87,3.98c2.35,5.29,5.84,10.11,10.3,13.86c7.16,6.02,16.17,8.21,25.37,7.65
		c8.98-0.54,18.16-5.5,21.94-14c10.2,22.59,29.82,42.74,54.17,49.54c22.41,6.23,46.38,2.77,66.83-8.07
		c-0.76,6.77,0.69,13.23,4.77,18.78c6.35,8.59,17.06,14.04,27.66,14.13c6.3,0.03,12.65-1.87,18.18-4.9
		c0.42,0.03,0.81,0.08,1.24,0.16c1.95,0.33,3.92,0.42,5.95,0.32c3.77,2.69,8.85,4.64,13.44,2.86c5.7-2.21,9.83-7.78,8.85-14.08
		c-0.59-3.81-3.22-7-5.87-9.7c-0.23-2.3-0.78-4.83-1.67-6.95c-2.35,0.36-5.53-0.54-7.29-2.24c-3.74-3.6-7.81-7.81-11.96-11.03
		c-7.29-5.69-14.9-11.2-23.2-15.35c1.79-1.43,3.35-2.95,4.37-5.03c29.21-4.82,63.51-14.26,88.59-30.31
		c17.01-10.9,34.06-24.57,43.96-42.54c8.27-15.03,13.36-31.64,18.19-48.05c-14.88,13.61-30.72,26.22-47.57,37.33
		c-15.06,9.93-30.94,19.15-47.77,25.77c-25.52,10.09-54.8,15.16-82.1,17.52c-8.53,0.75-17.09,1.11-25.67,1.52
		c4.23-1.27,7.84-2.9,11.49-5.43c10.87-8.1,23.57-15.2,33.59-23.69c7.31-6.2,11.19-15.9,14.66-24.74
		c10.62-5.52,17.14-12.77,22.29-26.81c-0.92-3.31-1.62-6.47-1.89-9.91c-0.86-9.28,0.91-17.65,6.07-25.49
		c5.99-12.81,8.94-25.75,7.23-39.95c-2.22-14.12-9.71-26.3-21.69-34.24c-5.71-3.88-12.86-7.11-22.95-11.02
		c-16.6-6.45-42.23-12.06-59.72-7.17c-18.97,5.3-36.95,20.08-41.43,40.02c-2.03,8.98-2.77,18.42-3.15,27.61
		c-0.05,1.14-0.93,5.54-1.37,6.72c-1.22,3.32-4.96,5.92-8.04,7.5c-0.19,0.46-0.34,0.95-0.4,1.46c-1.1,10.3-1.12,21.22,4.06,30.6
		c-1.88,7.29-5.13,20.98-3.21,28.36c3.41,13.16,8.57,25.66,12.28,38.79c1.81,4.47,3.84,8.4,6.93,12.13
		c-23.63-19.01-44.4-38.85-62.02-61.37c-10.22-13.07-18.55-27.43-25.36-42.54c-12.13-26.81-20.63-55.43-25.81-84.38
		c-7.96,20.61-17.09,46.48-14.88,68.7c1.45,14.73,5.81,31.91,11.65,45.51c11.63,27.15,29.7,50.98,50.67,73.23
		C334.79,372.65,334.89,374.84,335.89,377.06z"/>
	<path class="st2" d="M469.71,188.25c15.51,3.29,30.01,8.86,43.42,17.83c12.7,10.54,18.57,26.5,15.33,42.74
		c-1.49,7.68-4.07,14.51-8.9,20.73l-15.35-20.03c2.75,9.79,7.13,17.67,14.21,24.99c-1.12,16.97-3.92,22.95-0.7,33.75
		c0.12,0.45-1.16,1.88-1.34,2.23c-0.17,0.48-0.61,0.88-1.13,0.77c-1.36,1.95-3.23,3.64-5.24,4.9c-2.3,1.45-4.73,3.25-7.46,3.4
		c-5.85,0.34-14.34-2.98-20.9-3.62c-5.23-0.49-10.73,1.77-14.17,5.76c-0.42,0.44-1.97,2.67-2.26,3.26l-1.64,5.79
		c-0.64-0.16-1.26-0.26-1.9-0.16c-0.49,2.33-1.63,8-3.29,9.54c-1.97-0.63-4.07-1.41-6.16-2.91l2.54-10.23
		c-0.7-0.8-1.77-1.52-2.88-1.42l-3.51,10.57c-2.18-0.4-4.29-0.99-6.9-2.49l3.29-11.04c-1.16-0.48-2.99-1.39-4.44-1.31l-2.73,11.11
		l-8.48-2.14c0.84-3.34,1.72-6.71,2.94-11.14l-2.87-0.74l-3.68,10.75c-2.62-0.93-4.81-1.65-6.64-2.42
		c-0.44-2.27,2.31-7.72,3.64-9.71c-0.43-0.37-0.87-0.75-1.31-1.1c-0.03-0.32-0.08-0.63-0.11-0.93c0.62-2.03,1.98-3.94,2.21-5.96
		c0.25-2.07-1.19-7.04-2.16-8.98c-3.49-6.87-16.01-11.66-23.05-14.65c-2.79-1.2-5.61-7.96-6.28-10.72c-0.6-2.66-0.61-5.43-0.46-8.22
		c-0.15-0.23-0.29-0.49-0.46-0.75c3.23-2.43,6.35-5.32,8.23-8.94c2.37-4.6,3.76-9.84,4.92-14.87c6.8-1.24,12.68-4.98,18.88-10.88
		l-18.7,5.55c0.02-8.24,0.99-15.61,3.58-23.46c6.57-11.99,16.37-20.45,29.27-25.04C448.22,185.97,458.54,185.66,469.71,188.25z"/>
	<path d="M475.7,299.42c1.86,1.02,3.86,1.82,5.96,2.38c4.32,1.13,8.95,1.94,13.43,1.39c5.93-1.64,10.26-6.63,12.65-12.1
		c1.47-3.38,1.87-7.81,4.55-10.46c-0.26-0.11-0.5-0.29-0.76-0.36c-2.91-0.53-6.03-0.88-8.96-0.61c-5.02,0.43-9.95,1.51-14.94,2.11
		c-4.26,0.51-8.91,0.43-12.67-1.88c-2-1.22-3.67-2.97-5.24-4.69c-0.23,0.33-0.48,0.66-0.69,0.96c-0.35,3.14-0.41,6.6,0.08,9.71
		c0.57,3.86,1.37,7.96,3.69,11.17C473.46,298.02,474.63,298.88,475.7,299.42z"/>
	<path d="M430.89,284.02c0.88,0.03,1.44,0.07,2.24-0.22c7-2.38,12.57-8.82,16.21-15.1c0.1-0.19-0.35-0.25-0.51-0.36
		c-2.12,0.27-4.55,0.65-6.72,0.46c-9.75-0.98-15.55-11.19-22.41-17.08c-2.23-1.93-4.79-3.49-7.44-4.82
		c-0.18,0.28-0.42,0.56-0.54,0.9c-1.38,4.36-2.85,10.3-3.42,14.91c-0.44,3.57,0.32,7.29,2.06,10.45c0.04,0.05,0.94,1.43,0.97,1.48
		c0.74,0.82,1.51,1.62,2.41,2.26c4.25,3.05,9.07,5.51,14.17,6.75C428.9,283.92,429.91,284.01,430.89,284.02z"/>
	<path d="M457.95,287.34c-1.25-1.72-3.15-2.97-5.48-2.78c-0.82,0.33-1.5,0.7-2.17,1.26c-1.01,1.75-2.28,4.42-3.56,6.02
		c-1.77,2.18-4.09,4.43-6.01,6.28c-1.21,1.28-2.18,3.05-2.18,4.9c0.06,1.08,0.6,2.49,1.66,2.99c0.14,0.15,0.25,0.33,0.4,0.44
		c2.37,1.65,7.05,0.68,7.21-2.38c0.42-0.99,1.89-0.37,1.42,0.58c-0.78,2.19,0.09,5,2.57,5.79c0.7,0.22,1.47,0.36,2.22,0.25
		c1.18-0.2,2.35-0.59,3.09-1.58c1.26-1.29,1.86-2.78,1.73-4.6c-0.29-2.32-1.26-5.09-1.51-7.47c-0.24-2.33,0.1-5.98,0.75-8.19
		C458.32,288.31,458.28,287.84,457.95,287.34z"/>
	<path class="st2" d="M300.11,392.02c2.92-4.34,7.29-7.38,12.13-7.66c6.49-0.36,15.3,0.91,21.79,1.96c-3.2,1.35-5.64,3.14-7.6,6.02
		l-15.35-0.79L300.11,392.02z"/>
	<path class="st2" d="M285.39,218.55c4.51,13.59,7.96,26.04,12.85,38.2c14.2,35.3,36.37,66.54,63.17,93.37
		c7.54,7.56,15.63,14.64,23.83,21.48l-9.84,2.15C324.95,336.42,292.52,281.02,285.39,218.55z"/>
	<path class="st2" d="M289.11,386.02c5.39,0.34,10.92-0.87,16.25-1.55c0.5-0.07,0.91,0.43,1.36,0.66c-3.85,1.07-7.68,3.03-9.61,6.7
		c-0.18,0.01-0.37-0.02-0.53,0.05c-0.28,0.09-0.56,0.23-0.78,0.42c-4.22-0.09-7.76-2.44-9.75-6.05
		C288.75,385.92,286.61,387.2,289.11,386.02z"/>
	<path class="st2" d="M444.67,345.2c-1.38,4.11-2.56,7.08-3.98,9.98l5.25,0.85c0.79-3.81,1.16-5.6,2.51-9.29
		c1.93-0.45,5.33,0.62,7.12,1.69l-3.66,8l3.55,0.36l3.9-8.86c2.77,1.05,3.37,4.37,3.21,6.96c2.57-1.34,5.05-2.74,7.15-4.78
		c3.07-2.98,5.75-6.32,8.96-9.13c0.95-0.75,2.5-1.12,3.73-1.2c0.5-0.03,1.03,0.08,1.5,0.29c1.95,1.04,3.65,2.83,4.56,4.89
		c-2.56,2.33-5.22,4.61-8.3,6.22c-9.97,5.24-18.83,9.97-28.36,16.08c-1.74,1.11-3.85,1.62-5.85,2.07
		c-7.51-8.82-23.57-13.57-34.74-11.27c-1.4-1.5-2.89-3.09-3.61-5.03c-3.83-10.2-8.21-20-12.89-29.85c-1.21-2.7-2.02-5.6-2.99-8.21
		c-0.15-0.62-0.29-1.63-0.1-2.24c0.16-0.18,0.28-0.39,0.48-0.52c0.22-0.17,0.45-0.35,0.75-0.42c1.93-0.58,3.96-0.8,5.96-0.46
		c0.43,0.09,0.8,0.34,1.12,0.67c0.68,0.62,1.21,1.47,1.71,2.23c1.12,1.51,2.06,11.64,2.39,14.17c0.37,2.72,1.56,5.35,2.7,7.81
		c1.26-2.46,2.58-4.25,5.12-5.44c1.03,3.73,1.09,7.75-0.64,11.32c0.92,1.11,1.98,2.19,3.28,2.92c-0.01-3.39,1.55-6.44,2.9-9.45
		c1.81,0.69,3.64,1.46,5.64,3l-2.56,9.52c1.13,0.71,2.71,1.51,3.89,1.64l2.05-10.45c2.33,0.28,4.43,0.85,6.49,2.05
		c-0.59,3.68-1.46,7.26-2.65,10.78c1.25,0.82,2.67,1.37,4.17,1.48c0.68-3.33,1.63-6.56,3.34-10.54
		C440.27,343.34,442.47,343.94,444.67,345.2z"/>
	<path class="st2" d="M513.83,463.56c-6.98-5.88-13.52-10.94-21.28-16.47c-0.36-2.9-0.96-5.42-1.94-8.18
		c6.35,3.54,12.99,7.12,19.57,12.44C512.78,455.16,514.01,458.95,513.83,463.56z"/>
	<path class="st2" d="M523.07,462.83c2.88,3.23,4.69,3.7,6.14,4.4c-1.17,0.79-2.92,1.43-4.27,1.62c-2.99,0.43-5.91-0.78-8.22-2.57
		c-0.19-0.15-0.31-0.36-0.48-0.54c0.25-1.48,0.18-3.01-0.11-4.49c-0.26-1.31-0.63-2.97-4.95-9.19
		C515.5,455.42,519.44,458.71,523.07,462.83z"/>
	<path class="st2" d="M465.04,403.6l-6.48-7.58c40.72-1.62,81.04-10.51,117.87-28.07c19.62-9.35,37.88-21.49,54.35-35.62
		C588.98,379.68,528.37,406.46,465.04,403.6z"/>
	<path class="st3" d="M349.29,397.81c-0.26,0.39,0.01,0.15,0.27-0.08c0.79-0.68,1.7,0.01,1.09,0.83c-2.7,3.54,3.49,12.63,5.52,15.67
		c11,16.47,27.34,29.52,46.39,35.25c19.71,5.93,41.67,3.75,60.44-4.53c3.44-1.49,6.64-3.48,7.07-7.51c0.34-0.06,0.72-0.1,1.09-0.15
		c0.1,1.36-0.08,2.58-0.61,3.82c-3.41,7.85-21.86,14.9-29.93,16.92c-18.88,4.7-37.24,3.33-54.48-5.89
		c-12.95-6.91-23.88-18.51-31.14-31.19c-3.18-5.52-6.03-11.56-6.86-17.91C347.91,401.39,348.24,399.97,349.29,397.81z"/>
	<path class="st5" d="M349.29,397.81c0.15-0.24,0.23-0.53,0.43-0.75c10.03-10.9,30.18-16.66,44.63-17.69
		c15.24-1.1,30.42,2.5,43.27,10.83c15.64,10.11,29.7,27.2,33.48,45.67c0.04,0.23,0.04,0.49,0.06,1.4c-0.36,0.05-0.75,0.09-1.09,0.15
		c-0.43,4.04-3.64,6.02-7.07,7.51c-18.77,8.29-40.73,10.46-60.44,4.53c-19.05-5.72-35.38-18.78-46.39-35.25
		c-2.03-3.05-8.22-12.14-5.52-15.67c0.61-0.82-0.29-1.51-1.09-0.83C349.3,397.96,349.03,398.19,349.29,397.81z"/>
	<path d="M387.63,395.17c-10.9-0.49-21-0.71-31.85,0.77l1.98,0.09c8.74,0.43,17.5,1.34,26.12,2.84c0.24,0.03,0.5,0.03,1,0.17
		L387.63,395.17z"/>
	<path d="M441.38,418.46c8.8,4.27,16.87,8.61,24.76,14.45c-7.71-7.54-15.24-13.69-24.34-19.44L441.38,418.46z"/>
	<path class="st2" d="M441.36,419.36l-2.93-1.43c-0.4,2.55-1.08,5.11-1.96,7.53l-5.32-2.86c0.82-2.36,1.45-4.79,1.77-7.25l-5.48-2.4
		l-1.85,6.87l-5.52-2.48l1.88-6.57l-5.63-2.04l-2.07,6.47l-5.72-1.89l2.25-6.41l-5.77-1.76l-2.55,6.41l-5.74-1.39l2.61-6.53
		l-5.89-1.48l-2.9,6.82l-5.98-0.85l2.97-7.11l-3.58-0.71l3.71-5.11l3.26,0.15l3.08-4l5.54,0.75l-2.83,4.17l5.66,1.26l2.56-4.37
		l5.02,1.2l-2.2,4.42l5.42,1.61l1.77-4.61l4.75,1.68l-1.35,4.66l5.24,1.97l1.01-4.82l4.65,2.07l-0.47,4.98l5.1,2.4l0.44-4.83
		l4.73,2.52l0.14,5.26l2.66,1.86L441.36,419.36z"/>
	<path class="st1" d="M462.26,266.68c-4.9-1.29-9.08-5-12.69-8.36c-3.6-3.38-6.87-7.19-10.44-10.54c-3.93-3.68-8.71-6.73-13.26-9.6
		c-0.37-0.25,0.86-0.45,1.3-0.46c7.82-0.28,23.71,14.15,29.85,19.37c3.49,2.95,8.15,4.49,12.69,4.35
		c8.93-0.29,17.94-1.34,26.87-0.36c3.8,0.4,7.55,1.55,10.45,4.19c-5.7-0.53-11.47-0.93-17.19-0.41c-6.51,0.59-12.8,2.2-19.39,2.39
		C467.68,267.32,464.92,267.32,462.26,266.68z"/>
	<path class="st0" d="M412.25,246.92c-0.18,0.28-0.42,0.56-0.54,0.9c-1.38,4.36-2.85,10.3-3.42,14.91
		c-0.44,3.57,0.32,7.29,2.06,10.45c0.04,0.05,0.94,1.43,0.97,1.48c-1.59-0.33-2.56,0.4-2.95,1.5c-0.34,1.02-0.08,2.46,0.22,3.47
		c-4.41-3.5-5.58-8.49-4.92-13.93c0.83-6.83,3.73-13.19,7.01-19.19C411.22,246.65,411.73,246.78,412.25,246.92z"/>
	<path class="st0" d="M495.09,303.2c5.93-1.64,10.26-6.63,12.65-12.1c1.47-3.38,1.87-7.81,4.55-10.46c0.81,0.05,1.01,0.4,0.96,0.75
		c-0.62,5.69-2.21,12.05-4.82,17.16c-2.14,4.25-5.55,8.59-10.35,9.78c-0.16,0.05-1.33,0.24-1.5,0.26c-1.16,0.11-2.51,0.23-1.5-0.33
		c1.09-0.6,2.22-1.64,2.24-2.98c0.01-0.71-0.1-1.24-0.41-1.87C496.31,303.34,495.69,303.27,495.09,303.2z"/>
	<path class="st0" d="M430.91,284.01c0.86,0.05,1.42,0.08,2.22-0.2c7-2.38,12.57-8.82,16.21-15.1c0.1-0.19-0.35-0.25-0.51-0.36
		c0.33-0.35,0.61-0.41,0.89-0.38c0.2,0.01,0.4,0.05,0.6,0.09c3.16,3.88,12.94,7.14,17.91,6.28c0.39,0.27,1,0.33,1.5,0.86
		c-0.23,0.33-0.48,0.66-0.69,0.96c-0.35,3.14-0.41,6.6,0.08,9.71c0.57,3.86,1.37,7.96,3.69,11.17c0.67,0.97,1.84,1.84,2.9,2.38
		c-0.57,0.13-1.25,0.16-1.44,0.61c-0.48,1.25,0.19,3.59,0.57,4.78c-10.9-4.51-9.34-13.35-11.53-23.44c-0.82-3.8-4.86-6.38-8.5-6.01
		c-1.47,0.14-3.39,0.62-4.49,1.64c-4.21,3.84-7.98,8.17-12.69,11.31c-2.78,1.84-7.68,1.29-10.68,0.44
		C429.05,287.97,430.59,286.32,430.91,284.01z"/>
	<path class="st1" d="M452.47,284.57c-1.47,0.69-1.94,0.91-2.05,1.36c-1.13,1.64-2.4,4.32-3.68,5.92c-1.77,2.18-4.09,4.43-6.01,6.33
		c-1.21,1.22-2.18,2.99-2.18,4.84c0.06,1.08,0.6,2.49,1.66,2.99c-0.22,0.25-0.53,0.45-0.68,0.76c-0.5,1,0.4,2.89,0.82,3.74
		c-5.27-2.38-6.43-7.56-3.23-11.97c1.11-1.51,5-4.34,6.49-5.96c2.46-2.69,2.73-6.37,6.63-7.85
		C451,284.47,451.67,284.42,452.47,284.57z"/>
	<path class="st1" d="M459.72,290.13c0.29,2.18-0.42,4.93-0.48,6.91c-0.05,2.04,1.38,7.6,1.64,9.72c-0.13,3.88-4.35,8.9-8.72,6.71
		c1.5-0.42,1.68-1.7,1.86-2.79c1.18-0.2,2.35-0.59,3.09-1.58c1.29-1.25,1.97-2.77,1.73-4.6c-0.29-2.32-1.26-5.09-1.51-7.47
		c-0.24-2.33,0.1-5.98,0.75-8.19c0.23-0.56,0.19-1.01-0.15-1.52C458.85,288.06,459.51,288.96,459.72,290.13z"/>
	<path class="st0" d="M436.91,188.04c-10.65,3.22-19.64,10.17-26.12,19.28c-6.77,9.58-6.64,18.47-6.58,29.24
		c0.24-0.11,1.28-0.33,13.61-4.11c-0.58-8.21-0.59-15.73,2.56-22.94c3.94-9.02,10.97-15.66,20.22-19.54
		c7.25-2.71,14.2-3.85,21.99-3.04C453.72,186.04,445.64,186.17,436.91,188.04z"/>
	<path class="st1" d="M528.71,248.57c0.53-5.21,0.81-10.12,0.35-15.36c-2.58-13.82-11.03-25.84-23.82-32.03
		c3.68,3.11,5.77,5.01,7.73,7.07c8.27,8.64,10.5,19.45,7.41,30.28c-2.05,7.15-5.8,11.06-11.89,16.86l11.13,14.35
		C524.03,263.08,527.07,256.45,528.71,248.57z"/>
	<path class="st0" d="M391.74,314.88c-0.57-2.18,0.17-2.54,0.2-2.48c0.37-0.27,0.61-0.5,0.91-0.61c1.93-0.58,3.96-0.8,5.96-0.46
		c0.43,0.09,0.8,0.34,1.12,0.67c-1.09-2.61,0.44-12.73,0.87-15.98l-5.43-2.75c-2.77,6.46-4.22,12.35-4.71,19.36l11.83,40.03
		c2.27,6.23,5.68,11.82,10.8,15.32c11,7.48,28.12,12.47,40.01,3.89c10.11-7.3,21.7-14.31,31.35-21.9
		c6.28-4.99,9.81-15.04,12.9-22.45l-6.01-1.07c-2.05,3.62-5.74,10.79-9.14,13.33c0.5-0.03,1.03,0.08,1.5,0.29
		c1.95,1.04,3.65,2.83,4.56,4.89c-2.56,2.33-5.22,4.61-8.3,6.22c-9.97,5.24-18.83,9.97-28.36,16.08c-1.74,1.11-3.85,1.62-5.85,2.07
		c-7.51-8.82-23.57-13.57-34.74-11.27c-1.4-1.5-2.89-3.09-3.61-5.03c-3.83-10.2-8.21-20-12.89-29.85
		C393.51,320.48,392.7,317.58,391.74,314.88z"/>
	<path class="st0" d="M390.86,265.7c-0.18,0.52-0.45,0.99-0.5,1.51c-0.6,7.17-0.5,18.23,6.96,21.88c6.31,3.12,12.85,5.84,18.67,9.88
		c3.81,2.65,7.01,6.57,6.27,11.42c-1.31-2.02-3.04-3.84-4.97-5.29c-1.37,3.75-3.39,7.03-5.09,10.61c-1.9,3.94-1.03,7.68,0.76,11.57
		c2.05-3.1,4.55-7.13,4.29-10.97c0.65-0.43,0.94-0.63,1.72-0.67c0.51-0.05,1,0.02,2.22,0.26c-0.03-0.32-0.08-0.63-0.11-0.93
		c0.62-2.03,1.98-3.94,2.21-5.96c0.25-2.07-1.19-7.04-2.16-8.98c-3.49-6.87-16.01-11.66-23.05-14.65c-2.79-1.2-5.61-7.96-6.28-10.72
		c-0.6-2.66-0.61-5.43-0.46-8.22C391.17,266.22,391.03,265.96,390.86,265.7z"/>
	<path class="st0" d="M342.04,382.12c-1.42,1.27-10.18,7.97-11.21,11.21c-1.38,4.35-2.55,8.9-3.03,13.44
		c-0.31,2.95,2.46,4.43,4.9,5.43c-1.94,0.57-3.93,1.22-5.87,0.27c-0.74,1.48-2.02,3.16-3.4,4.08c-3.99,2.61-8.99,2.41-13.44,0.85
		c-8.93-3.14-15.38-11.32-16.85-20.63l3.9-0.26c-0.6-0.91-0.91-2.13-0.59-3.18c0.07-0.25,0.22-0.5,0.66-1.51
		c-0.18,0.01-0.37-0.02-0.53,0.05c-0.28,0.09-0.56,0.23-0.78,0.42c-4.22-0.09-7.76-2.44-9.75-6.05c2.71-0.32,0.57,0.96,3.06-0.22
		c-1.25-0.4-2.47-0.76-3.8-0.56c-1.44,1.38-2.32,3.45-2.92,5.3c-1.03-1.4-1.99-2.31-3.73-2.49c-1.73-0.09-3.65,0.95-4.15,2.83
		c-0.75,2.87,1.63,6.23,4.9,5.33c1.59-0.43,2.61-1.72,3.19-3.18c0.65,2.57,1.71,5.12,4.15,6.47l1.35-1.17
		c-2.63-2.5-3.55-5.58-2.71-9.15c0.18-0.79,0.59-0.02,0.76,0.77c0.67,3.04,2.17,5.55,4.71,7.39c1.03,4.09,2.7,7.92,5.07,11.44
		c4.42,6.54,10.98,10.23,18.55,11.91c7.22,1.59,16.54,0.09,19.8-7.42c3.51-8.13,4.29-17.04,7.56-24.65
		c2.23-5.19,6.38-11.19,4.06-18.25l-1.7,0.45C345.17,375.1,344.51,378.76,342.04,382.12z"/>
	<path class="st0" d="M300.17,392.02c-0.6,1.82-0.66,2.81-0.12,4.68c7.96,0.34,15.98,1.36,23.75,3.15c0.6-2.54,1.68-4.84,2.64-7.55
		l-15.82-0.75L300.17,392.02z"/>
	<path class="st1" d="M285.3,217.94c-1.47,4.84-2.22,9.9-2.6,14.95c-1.08,14.43,0.51,29.4,4.75,43.27
		c10.1,33.2,28.76,61.27,53.28,85.69c6.13,6.12,12.61,11.83,18.98,17.67l9.36-3.77C322.98,334.24,293.83,279.39,285.3,217.94z"/>
	<path class="st1" d="M468.94,408.99l5.17,8.6c1.77-0.1,3.54-0.22,5.32-0.34c32.42-2.2,64.35-9.94,93.28-24.97
		c21.99-11.41,46.13-32.14,56.38-54.93c0.16-0.36,0.28-0.75,1.44-4.7C588.21,378.54,531.33,405.65,468.94,408.99z"/>
	<path class="st1" d="M463.85,343.55c2.26-1.36,5.1-3.5,5.9-6.19c1.34-4.43,1.94-9.08,2.96-13.6c-0.26-0.01-0.67-0.26-7.48,1.2
		l-1.74,5.59l1.6,0.8l1.48,0.95C463.93,335.65,462.95,339.37,463.85,343.55z"/>
	<path class="st1" d="M467.49,321.7c3.6-1.45,7.27-2.43,11.19-2.11c7.47,0.61,15.36,3.5,22.38,3.62c2.97,0.05,5.18-1.44,7.46-3.28
		c2.65-2.14,4.81-4.76,6.73-8.67c-1.36,1.95-3.23,3.64-5.24,4.9c-2.3,1.45-4.73,3.25-7.46,3.4c-5.85,0.34-14.34-2.98-20.9-3.62
		C476.42,315.45,470.93,317.71,467.49,321.7z"/>
	<path class="st6" d="M516.25,465.73c-0.1,0.34-0.16,0.68-0.25,1.03c-0.25,0.75-1.6,2.26-2.16,2.71c0.88,0.73,1.77,1.48,2.62,2.24
		c-0.62,0.61-1.27,1.23-1.95,1.75c-7.28,5.41-16.8,7.44-25.39,4.02c-5.46-2.18-10.17-6.92-9.01-13.26c-1.66-1-3.1-1.84-3.98-3.72
		l1.05-0.31c1.83,0.98,4.14,0.54,5.36-1.19c2.65-3.82,4.1-8.42,5.89-12.68c0.67-1.63,1.04-4.25,0.44-5.97
		c-0.82-2.39-3.14-8-2.97-10.45c0.28-3.67,2.1-7.2,5.2-9.27l-0.88-1.68c-2.7,1.85-4.78,4.89-5.84,7.97
		c-1.27,3.63-1.37,6.94-2.44,10.44c-2.05,6.9-5.48,13.33-7.77,20.15c-0.71,2.11-1.01,4.53-0.84,6.71
		c0.58,6.89,6.36,11.16,12.04,14.14c10.78,5.59,23.5,2.57,32.53-4.79c3.17,0.4,6.29-1.16,8.52-3.27c0.16,0.25,0.61,0.49,0.48,0.75
		c-1.48,2.79-3.96,5.03-7.26,5.1c-0.22,0.54-0.42,1.1-0.62,1.67c2.67,0.66,5.39-0.32,7.41-2.16c0.28,1.46,0.45,3.12,1.63,4.15
		c1.03,0.88,2.21,1.3,3.59,0.99c2.08-0.45,3.54-2.46,3.2-4.6c-0.35-2.35-3.12-4.31-5.43-3.22c-0.54,0.26-0.82,0.03-0.61-0.51
		c0.59-1.43,0.81-2.96,0.72-4.48c-0.03-0.15-0.09-0.32-0.32-0.75c-1.17,0.79-2.92,1.43-4.27,1.62c-2.99,0.43-5.91-0.78-8.22-2.57
		C516.53,466.12,516.42,465.91,516.25,465.73z"/>
	<path class="st1" d="M492.48,447.05c0.13,2.95-1.28,6.04-2.36,8.68c7.2,3.33,14.15,7.16,20.71,11.61c0.44-0.15,1.07-0.61,1.38-0.88
		c0.77-0.62,1.27-1.78,1.61-2.9L492.48,447.05z"/>
	<path class="st1" d="M512.3,677.06c2.49,0.23,4.92,0.19,7.41-0.04c6.17-0.58,11.58-3.87,13.93-9.79c2.04-5.17-3.26-9.67-7.3-11.73
		C521.18,662.34,516.57,669.61,512.3,677.06z"/>
</g>
</svg>
